<svg width="24" height="24" viewBox="0 0 24 24" fill="none" xmlns="http://www.w3.org/2000/svg">
    <g clip-path="url(#clip0_5198_12921)">
        <path d="M24.4561 16.9289C24.304 16.4606 23.801 16.2046 23.3327 16.3565L22.1733 16.7332C22.8835 15.2644 23.2555 13.6492 23.2555 11.9998C23.2555 6.0018 18.3759 1.12207 12.3778 1.12207C6.37973 1.12207 1.5 6.0018 1.5 11.9998C1.5 17.9979 6.37973 22.8776 12.3778 22.8776C12.8701 22.8776 13.2694 22.4784 13.2694 21.986C13.2694 21.4937 12.8701 21.0943 12.3778 21.0943C7.363 21.0943 3.28324 17.0147 3.28324 11.9998C3.28324 6.98507 7.363 2.90531 12.3778 2.90531C17.3926 2.90531 21.4723 6.98507 21.4723 11.9998C21.4723 13.3816 21.1605 14.7344 20.5648 15.9635L20.1687 14.744C20.0165 14.2758 19.5134 14.0196 19.0452 14.1716C18.5769 14.3238 18.3205 14.8268 18.4727 15.2951L19.5241 18.5312C19.6464 18.908 19.9959 19.1476 20.3718 19.1476C20.463 19.1476 20.556 19.1335 20.6475 19.1038L23.8836 18.0526C24.3519 17.9004 24.6083 17.3974 24.4561 16.9289Z" fill="#959CAD"/>
    </g>
    <defs>
        <clipPath id="clip0_5198_12921">
            <rect width="23" height="23" fill="white" transform="translate(0.5 0.5)"/>
        </clipPath>
    </defs>
</svg>
