<svg width="35" height="40" viewBox="0 0 35 40" fill="none" xmlns="http://www.w3.org/2000/svg">
    <path d="M34.1582 36.3323C34.1292 36.2163 31.3045 24.6517 30.9062 20.7999C30.307 15.005 27.0302 10.3782 22.4999 8.32054L24.321 4.09662V3.80229C24.321 1.70543 22.6151 0 20.5184 0H13.3422C11.2449 0 9.53893 1.70543 9.53893 3.80229V4.09662L11.426 8.47333C7.06656 10.6023 3.93372 15.1458 3.34937 20.7999C2.95137 24.6517 0.125805 36.2163 0.0973099 36.3323C-0.0871619 37.0869 0.365394 37.8505 1.11622 38.0501C1.41523 38.1296 8.54195 40 17.1283 40C25.5943 40 32.8304 38.1309 33.1343 38.0516C33.8877 37.8544 34.3436 37.0888 34.1582 36.3323ZM13.3422 2.85238H20.5184C20.9634 2.85238 21.3376 3.15945 21.4404 3.57264L19.7777 7.42968C18.9209 7.25289 18.0355 7.16009 17.128 7.16009C16.092 7.16009 15.0858 7.28363 14.1183 7.51235L12.4202 3.57264C12.5233 3.15945 12.8975 2.85238 13.3422 2.85238ZM17.1281 37.1469C11.0584 37.1469 5.63915 36.1407 3.20615 35.6111C3.98546 32.3514 5.85118 24.3469 6.18732 21.0933C6.71842 15.9574 9.62441 12.0523 13.6487 10.618L10.9723 13.9244L13.1899 15.7193L16.9814 11.0355L20.7722 15.7193L22.9898 13.9244L20.1927 10.4693C24.4339 11.7745 27.5197 15.7811 28.0682 21.0935C28.4049 24.3461 30.2691 32.3463 31.0488 35.6079C28.5969 36.1375 23.1353 37.1469 17.1281 37.1469Z" fill="black"/>
    <path d="M17.3423 23.1822C15.9649 23.0187 14.9108 22.8265 14.9108 21.9925C14.9108 20.8328 16.5459 20.7074 17.2491 20.7074C18.2928 20.7074 19.4064 21.1976 19.7843 21.8238L19.8942 22.0067L22.0585 21.0049L21.9515 20.7867C21.1442 19.1382 19.6992 18.6613 18.6047 18.4693V17.0239H16.0714V18.4631C13.7127 18.8111 12.3124 20.1202 12.3124 21.993C12.3124 25.0473 15.0848 25.3574 17.108 25.5833C18.9105 25.7968 19.7496 26.2419 19.7496 26.9841C19.7496 28.4023 17.7864 28.5127 17.185 28.5127C15.8457 28.5127 14.5533 27.8438 14.1791 26.9565L14.0863 26.7368L11.7356 27.7338L11.8293 27.9529C12.526 29.5828 14.0274 30.6036 16.0718 30.8443V32.4071H18.6051V30.7658C20.5522 30.5479 22.4458 29.3189 22.4458 26.9845C22.4455 23.813 19.4962 23.4488 17.3423 23.1822Z" fill="black"/>
</svg>
