<svg width="41" height="40" viewBox="0 0 41 40" fill="none" xmlns="http://www.w3.org/2000/svg">
    <g clip-path="url(#clip0_5032_575)">
        <path d="M24.6668 6.17432H24.3407L14.4158 11.6231H7.2422C3.31973 11.6231 0.128418 14.8142 0.128418 18.7369C0.128418 22.2452 2.68324 25.1609 6.02816 25.7401L3.72831 33.8258H11.6633L13.9314 25.852H14.4158L24.341 31.2999H24.6671C26.7684 31.2999 28.4784 29.5903 28.4784 27.4886V9.98542C28.4779 7.88426 26.7679 6.17432 24.6668 6.17432ZM9.74459 31.2847H7.09276L8.4873 26.3818H11.1391L9.74459 31.2847ZM18.4049 25.1427L15.0675 23.3107H7.2422C4.72045 23.3107 2.66921 21.2586 2.66921 18.7369C2.66921 16.2151 4.72045 14.1639 7.2422 14.1639H15.0675L18.4049 12.3315V25.1427ZM25.9371 27.4886C25.9371 28.0959 25.5085 28.6045 24.9389 28.7294L20.9457 26.5376V10.937L24.9389 8.74466C25.509 8.86956 25.9371 9.37865 25.9371 9.98592V27.4886Z" fill="black"/>
        <path d="M33.354 13.2539L31.5369 15.071C32.4757 16.3716 33.0356 17.963 33.0356 19.6856C33.0356 21.4088 32.4757 23.0002 31.5369 24.3002L33.354 26.1173C34.7442 24.3426 35.5764 22.11 35.5764 19.6856C35.5764 17.2612 34.7442 15.0288 33.354 13.2539Z" fill="black"/>
        <path d="M36.5874 10.02L34.7852 11.8223C36.5353 13.9689 37.5873 16.7065 37.5873 19.6856C37.5873 22.6652 36.5353 25.4024 34.7852 27.5489L36.5874 29.3512C38.7941 26.7385 40.1281 23.3655 40.1281 19.6856C40.1281 16.0058 38.7941 12.6328 36.5874 10.02Z" fill="black"/>
    </g>
    <defs>
        <clipPath id="clip0_5032_575">
            <rect width="40" height="40" fill="white" transform="translate(0.128418)"/>
        </clipPath>
    </defs>
</svg>
