<svg width="270" height="270" viewBox="0 0 270 270" fill="none" xmlns="http://www.w3.org/2000/svg">
    <g clip-path="url(#clip0_3905_60327)">
        <path d="M245.698 54.6529L143.327 2.00735C138.122 -0.669116 131.907 -0.669116 126.702 2.00735L24.3314 54.6529C18.2478 57.7816 14.4688 63.9744 14.4688 70.8158V199.184C14.4688 206.026 18.2478 212.218 24.3314 215.347L126.703 267.993C131.907 270.669 138.122 270.67 143.327 267.993L245.699 215.347C251.782 212.218 255.561 206.026 255.561 199.184V70.8158C255.561 63.9744 251.782 57.7811 245.698 54.6529ZM246.561 199.184C246.561 202.638 244.653 205.764 241.582 207.343L139.21 259.989C136.583 261.339 133.446 261.339 130.818 259.989L28.4473 207.343C25.3766 205.763 23.4685 202.638 23.4685 199.184V70.8158C23.4685 67.3625 25.376 64.236 28.4473 62.657C138.893 5.85947 131.834 8.99833 135.015 8.99833C138.209 8.99833 131.187 5.88535 241.434 62.5805L135.022 117.089L48.1794 72.3047C45.9715 71.1656 43.2568 72.0331 42.1171 74.2421C40.978 76.4511 41.8454 79.1647 44.0544 80.3043L130.515 124.891V236.845C130.515 239.33 132.53 241.345 135.015 241.345C137.5 241.345 139.515 239.33 139.515 236.845V124.9L246.529 70.0822C246.579 70.7033 246.561 198.29 246.561 199.184Z" fill="#F1E846"/>
    </g>
    <defs>
        <clipPath id="clip0_3905_60327">
            <rect width="270" height="270" fill="white"/>
        </clipPath>
    </defs>
</svg>
