<svg width="18" height="20" viewBox="0 0 18 20" fill="none" xmlns="http://www.w3.org/2000/svg">
    <path d="M3 4.7967C3 4.37265 3.15804 3.96596 3.43934 3.66611C3.72064 3.36625 4.10218 3.1978 4.5 3.1978H6C6.39782 3.1978 6.77936 3.36625 7.06066 3.66611C7.34196 3.96596 7.5 4.37265 7.5 4.7967V6.3956C7.5 6.81966 7.34196 7.22634 7.06066 7.5262C6.77936 7.82605 6.39782 7.9945 6 7.9945H4.5C4.10218 7.9945 3.72064 7.82605 3.43934 7.5262C3.15804 7.22634 3 6.81966 3 6.3956V4.7967ZM10.5 4.7967C10.5 4.37265 10.658 3.96596 10.9393 3.66611C11.2206 3.36625 11.6022 3.1978 12 3.1978H13.5C13.8978 3.1978 14.2794 3.36625 14.5607 3.66611C14.842 3.96596 15 4.37265 15 4.7967V6.3956C15 6.81966 14.842 7.22634 14.5607 7.5262C14.2794 7.82605 13.8978 7.9945 13.5 7.9945H12C11.6022 7.9945 11.2206 7.82605 10.9393 7.5262C10.658 7.22634 10.5 6.81966 10.5 6.3956V4.7967ZM3 12.7912C3 12.3672 3.15804 11.9605 3.43934 11.6606C3.72064 11.3608 4.10218 11.1923 4.5 11.1923H6C6.39782 11.1923 6.77936 11.3608 7.06066 11.6606C7.34196 11.9605 7.5 12.3672 7.5 12.7912V14.3901C7.5 14.8142 7.34196 15.2208 7.06066 15.5207C6.77936 15.8206 6.39782 15.989 6 15.989H4.5C4.10218 15.989 3.72064 15.8206 3.43934 15.5207C3.15804 15.2208 3 14.8142 3 14.3901V12.7912ZM10.5 12.7912C10.5 12.3672 10.658 11.9605 10.9393 11.6606C11.2206 11.3608 11.6022 11.1923 12 11.1923H13.5C13.8978 11.1923 14.2794 11.3608 14.5607 11.6606C14.842 11.9605 15 12.3672 15 12.7912V14.3901C15 14.8142 14.842 15.2208 14.5607 15.5207C14.2794 15.8206 13.8978 15.989 13.5 15.989H12C11.6022 15.989 11.2206 15.8206 10.9393 15.5207C10.658 15.2208 10.5 14.8142 10.5 14.3901V12.7912Z" fill="white"/>
</svg>
