<svg width="30" height="30" viewBox="0 0 30 30" fill="none" xmlns="http://www.w3.org/2000/svg">
    <path d="M12.7678 8.4002L12.7676 8.40001C11.999 7.63171 10.9568 7.2001 9.87011 7.2001C8.7835 7.2001 7.74137 7.63163 6.97286 8.39979C6.97279 8.39987 6.97272 8.39994 6.97265 8.40001M12.7678 8.4002L6.26565 14.9017C5.30987 13.9457 4.77295 12.6491 4.77295 11.2973C4.77295 9.94538 5.30987 8.64886 6.26565 7.69279L6.97265 8.40001M12.7678 8.4002L14.2615 9.89271L14.9684 10.5989L15.6752 9.89271L17.1689 8.4002L17.1752 8.39391L17.1814 8.38751C17.5595 7.99608 18.0117 7.68387 18.5117 7.46908C19.0117 7.2543 19.5495 7.14124 20.0936 7.13651C20.6378 7.13179 21.1775 7.23548 21.6811 7.44154C22.1848 7.64761 22.6424 7.95191 23.0271 8.33671C23.4119 8.7215 23.7162 9.17908 23.9223 9.68274C24.1284 10.1864 24.2321 10.7261 24.2273 11.2702C24.2226 11.8144 24.1096 12.3522 23.8948 12.8522C23.68 13.3522 23.3678 13.8044 22.9763 14.1824L22.9701 14.1885L22.9639 14.1947L14.9684 22.1914L6.97286 14.1947M12.7678 8.4002L6.97286 14.1947M6.97265 8.40001C6.20448 9.16852 5.77295 10.2106 5.77295 11.2973C5.77295 12.3839 6.20454 13.4261 6.97281 14.1947M6.97265 8.40001L6.97281 14.1947M6.97286 14.1947C6.97284 14.1947 6.97282 14.1947 6.97281 14.1947M6.97286 14.1947L6.97281 14.1947" stroke="white" stroke-width="2"/>
</svg>
