<svg width="18" height="18" viewBox="0 0 18 18" fill="none" xmlns="http://www.w3.org/2000/svg">
    <path fill-rule="evenodd" clip-rule="evenodd" d="M10.1696 0.9414C10.3523 0.998858 10.5119 1.1131 10.6252 1.26752C10.7385 1.42194 10.7996 1.60847 10.7996 1.8V6.3H14.3996C14.5642 6.29993 14.7257 6.34501 14.8665 6.43034C15.0073 6.51567 15.122 6.63799 15.1981 6.78397C15.2742 6.92995 15.3088 7.09401 15.2981 7.25829C15.2875 7.42257 15.2319 7.58078 15.1376 7.7157L8.83762 16.7157C8.72797 16.8728 8.57107 16.9908 8.38973 17.0525C8.20838 17.1143 8.01207 17.1166 7.82935 17.059C7.64662 17.0015 7.48702 16.8872 7.37376 16.7327C7.2605 16.5782 7.1995 16.3916 7.19962 16.2V11.7H3.59962C3.43499 11.7001 3.2735 11.655 3.13272 11.5697C2.99193 11.4843 2.87725 11.362 2.80115 11.216C2.72505 11.07 2.69045 10.906 2.70111 10.7417C2.71177 10.5774 2.76729 10.4192 2.86162 10.2843L9.16162 1.2843C9.27143 1.12751 9.42837 1.00981 9.60964 0.948308C9.79091 0.886805 9.98707 0.884701 10.1696 0.9423V0.9414Z" fill="white"/>
</svg>
