<svg width="26" height="10" viewBox="0 0 26 10" fill="none" xmlns="http://www.w3.org/2000/svg">
    <path d="M8.5963 9.44192C7.92075 10.186 6.83144 10.186 6.1559 9.44192L0.506658 3.23503C-0.168886 2.49093 -0.168886 1.2931 0.506658 0.558076C1.1822 -0.176951 2.27152 -0.176951 2.94706 0.558076L8.5963 6.7559C9.27184 7.5 9.27184 8.69782 8.5963 9.44192ZM14.2286 3.23503L8.57941 9.44192C7.90386 10.186 6.81455 10.186 6.13901 9.44192C5.46346 8.69782 5.46346 7.5 6.13901 6.76497L11.7882 0.567151C12.4638 -0.176951 13.5531 -0.176951 14.2286 0.567151C14.9042 1.30218 14.9042 2.5 14.2286 3.23503ZM19.861 9.44192C19.1854 10.186 18.0961 10.186 17.4206 9.44192L11.7714 3.2441C11.0958 2.5 11.0958 1.30218 11.7714 0.567151C12.4469 -0.176951 13.5362 -0.176951 14.2118 0.567151L19.861 6.76497C20.5365 7.5 20.5365 8.69782 19.861 9.44192ZM25.4933 3.23503L19.8441 9.44192C19.1686 10.186 18.0792 10.186 17.4037 9.44192C16.7282 8.69782 16.7282 7.5 17.4037 6.76497L23.0529 0.558076C23.7285 -0.186025 24.8178 -0.186025 25.4933 0.558076C26.1689 1.30218 26.1689 2.5 25.4933 3.23503Z" fill="black"/>
</svg>
