<svg width="21" height="20" viewBox="0 0 21 20" fill="none" xmlns="http://www.w3.org/2000/svg">
    <g clip-path="url(#clip0_5001_3997)">
        <path d="M19.4732 2.75532C18.5282 1.85134 17.2225 1.39954 15.5557 1.39954C15.0944 1.39954 14.6236 1.47789 14.1438 1.63451C13.6638 1.79125 13.2173 2.00272 12.8047 2.26875C12.3916 2.53471 12.0366 2.78447 11.7387 3.01764C11.4413 3.2509 11.1584 3.49878 10.8906 3.7611C10.6227 3.49878 10.3399 3.2509 10.0424 3.01764C9.74471 2.78447 9.38953 2.53486 8.97649 2.26875C8.56353 2.0026 8.11708 1.79129 7.63719 1.63451C7.15735 1.47793 6.68666 1.39954 6.22538 1.39954C4.55866 1.39954 3.25294 1.85145 2.30803 2.75532C1.36312 3.65912 0.890625 4.91274 0.890625 6.51629C0.890625 7.00466 0.978189 7.50778 1.15297 8.02503C1.32774 8.54254 1.52691 8.98358 1.75008 9.34796C1.97321 9.71229 2.22625 10.0676 2.50899 10.4139C2.79174 10.7601 2.99838 10.9987 3.12843 11.1299C3.2586 11.2611 3.36095 11.3559 3.43534 11.4143L10.3995 17.9962C10.5335 18.1274 10.6972 18.1932 10.8906 18.1932C11.084 18.1932 11.2478 18.1274 11.3817 17.9962L18.3348 11.4359C20.0387 9.76706 20.8906 8.12704 20.8906 6.51614C20.8906 4.91247 20.4182 3.65897 19.4732 2.75532ZM17.3638 10.4084L10.8906 16.5201L4.4064 10.3973C3.01499 9.03463 2.3194 7.74069 2.3194 6.51614C2.3194 5.92582 2.39938 5.40459 2.55927 4.95279C2.71927 4.50091 2.92387 4.14182 3.17311 3.87579C3.4224 3.60968 3.72555 3.39301 4.08268 3.22524C4.44001 3.05762 4.78968 2.94461 5.13189 2.88633C5.47409 2.82812 5.83861 2.79898 6.22558 2.79898C6.61242 2.79898 7.02917 2.89181 7.47559 3.07773C7.92193 3.26357 8.33301 3.49682 8.70872 3.77741C9.0845 4.05819 9.4063 4.32055 9.67427 4.56464C9.94208 4.80896 10.1652 5.03294 10.3438 5.23705C10.4777 5.39747 10.6601 5.47766 10.8907 5.47766C11.1213 5.47766 11.3035 5.39747 11.4375 5.23705C11.6161 5.03294 11.8394 4.80884 12.1072 4.56464C12.3751 4.32055 12.6969 4.0583 13.0725 3.77741C13.4483 3.49682 13.8594 3.26357 14.306 3.07773C14.7522 2.89184 15.1691 2.79898 15.556 2.79898C15.9429 2.79898 16.3073 2.82812 16.6496 2.88633C16.992 2.94458 17.3416 3.05762 17.6988 3.22524C18.056 3.39297 18.3592 3.60979 18.6084 3.87579C18.8576 4.14182 19.0623 4.50091 19.2223 4.95279C19.382 5.40459 19.462 5.92582 19.462 6.51614C19.4619 7.74069 18.7627 9.03823 17.3638 10.4084Z" fill="#959CAD"/>
    </g>
    <defs>
        <clipPath id="clip0_5001_3997">
            <rect width="20" height="19.5926" fill="white" transform="translate(0.890625)"/>
        </clipPath>
    </defs>
</svg>
