<svg width="18" height="18" viewBox="0 0 18 18" fill="none" xmlns="http://www.w3.org/2000/svg">
    <path d="M7.35873 7.01197C7.52974 6.88637 7.64349 6.69776 7.67496 6.48787C7.70643 6.27805 7.65278 6.06434 7.52607 5.89424L6.68566 4.76513C6.58703 4.6326 6.4391 4.54568 6.27538 4.52391C6.11165 4.50214 5.94591 4.54727 5.81615 4.64937C5.66123 4.7713 5.48772 4.90744 5.32358 5.03526C4.91953 5.34996 4.76703 5.88966 4.94587 6.36954C5.93226 9.01648 8.00595 11.1156 10.6357 12.1358C11.1766 12.3456 11.7905 12.1286 12.0777 11.6246L12.4006 11.0579C12.5593 10.7794 12.4761 10.4257 12.2102 10.247L11.1818 9.55605C11.002 9.4353 10.7809 9.39301 10.5693 9.43862C10.3577 9.4843 10.1733 9.61399 10.0594 9.79824C10.0258 9.85258 9.99327 9.9054 9.96291 9.95455C9.92056 10.0232 9.85221 10.0719 9.77347 10.0894C9.69472 10.107 9.61217 10.0919 9.54465 10.0477C8.55868 9.40202 7.71634 8.5583 7.07245 7.57102C6.98511 7.43709 7.0186 7.25805 7.14857 7.16489C7.21331 7.11838 7.28512 7.06604 7.35873 7.01197Z" fill="#1ABF70"/>
    <path d="M12.7467 8.4692C12.5768 8.4692 12.4392 8.33147 12.4392 8.16171C12.4392 6.13765 10.7925 4.49096 8.76843 4.49096C8.5986 4.49096 8.46094 4.35323 8.46094 4.18347C8.46094 4.01364 8.59867 3.87598 8.76843 3.87598C11.1316 3.87598 13.0542 5.79863 13.0542 8.16171C13.0542 8.33154 12.9166 8.4692 12.7467 8.4692Z" fill="#1ABF70"/>
    <path d="M11.783 8.46943C11.6132 8.46943 11.4755 8.33169 11.4755 8.16193C11.4755 6.66919 10.2611 5.45482 8.76843 5.45482C8.5986 5.45482 8.46094 5.31709 8.46094 5.14733C8.46094 4.97751 8.59867 4.83984 8.76843 4.83984C10.6003 4.83984 12.0906 6.33016 12.0906 8.162C12.0905 8.33176 11.9528 8.46943 11.783 8.46943Z" fill="#1ABF70"/>
    <path d="M10.8366 8.46975C10.6667 8.46975 10.5291 8.33201 10.5291 8.16226C10.5291 7.19147 9.73921 6.4016 8.76843 6.4016C8.5986 6.4016 8.46094 6.26387 8.46094 6.09411C8.46094 5.92429 8.59867 5.78662 8.76843 5.78662C10.0784 5.78662 11.1441 6.85237 11.1441 8.16233C11.1441 8.33208 11.0064 8.46975 10.8366 8.46975Z" fill="#1ABF70"/>
    <path d="M16.5429 6.64206C16.5429 3.56188 14.046 1.06494 10.9658 1.06494H7.0172C3.84268 1.06494 1.26929 3.63834 1.26929 6.81285V9.29219C1.26929 11.7414 2.80175 13.8314 4.95959 14.6593V16.6067C4.95959 16.8375 5.10488 17.0468 5.32108 17.1274C5.38388 17.1509 5.44932 17.1622 5.51413 17.1622C5.67259 17.1622 5.82806 17.0947 5.93537 16.971L7.61035 15.0402H10.9658C14.046 15.0402 16.543 12.5432 16.543 9.46305V6.64206H16.5429ZM15.2445 9.46305C15.2445 11.8223 13.3251 13.7417 10.9658 13.7417H7.99138L5.69941 16.407C5.66947 16.4418 5.62101 16.4542 5.57797 16.4384C5.53492 16.4224 5.50629 16.3814 5.50629 16.3354C5.50629 15.7677 5.50629 14.4921 5.50629 13.4772C3.79444 12.8572 2.56773 11.2155 2.56773 9.29226V6.81292C2.56773 4.35944 4.56379 2.36339 7.01727 2.36339H10.9659C13.3252 2.36339 15.2446 4.28278 15.2446 6.64206V9.46305H15.2445Z" fill="#1ABF70"/>
</svg>
