<svg width="30" height="30" viewBox="0 0 30 30" fill="none" xmlns="http://www.w3.org/2000/svg">
    <path d="M26.6085 5.38672H6.74507C4.87476 5.38672 3.35352 6.77816 3.35352 8.48865V8.76054C1.50094 8.77984 0 10.1621 0 11.8606V21.5111C0 23.2216 1.52152 24.613 3.39154 24.613H23.2549C25.125 24.613 26.6465 23.2216 26.6465 21.5111V21.2392C28.4986 21.2203 30 19.838 30 18.1391V8.4888C30.0004 6.7783 28.4785 5.38672 26.6085 5.38672ZM24.4717 21.5111C24.4717 22.0135 23.9148 22.4376 23.2554 22.4376H3.39197C2.73256 22.4376 2.17564 22.0135 2.17564 21.5111V11.8608C2.17564 11.3586 2.73285 10.9342 3.39197 10.9342H23.2554C23.9148 10.9342 24.4717 11.3587 24.4717 11.8608V21.5111ZM26.6469 19.0627V11.8606C26.6469 10.1501 25.1254 8.75868 23.2554 8.75868H5.52873V8.48865C5.52873 7.98648 6.08594 7.56208 6.74507 7.56208H26.6085C27.2679 7.56208 27.8248 7.98663 27.8248 8.48865V18.1391H27.8252C27.8251 18.6314 27.289 19.0464 26.6469 19.0627Z" fill="#EBF0F5"/>
    <path d="M13.3624 15.8708C12.447 15.7617 11.9823 15.6312 11.9823 15.2192C11.9823 14.5811 12.906 14.5122 13.3034 14.5122C13.8882 14.5122 14.5349 14.7949 14.7456 15.1426L14.8293 15.2814L16.1653 14.6633L16.0837 14.4969C15.6135 13.5366 14.78 13.2466 14.1365 13.1286V12.2788H12.5738V13.1242C11.1976 13.3385 10.3816 14.1135 10.3816 15.2189C10.3816 17.0378 12.0876 17.2285 13.2155 17.355C14.2407 17.476 14.7186 17.7222 14.7186 18.1293C14.7186 18.9168 13.6063 18.978 13.2651 18.978C12.5002 18.978 11.7634 18.5992 11.5517 18.0963L11.481 17.9292L10.0315 18.5433L10.103 18.7104C10.5108 19.6653 11.3849 20.2675 12.5734 20.4176V21.3337H14.1359V20.3719C15.2765 20.2312 16.3753 19.5017 16.3753 18.1289C16.3757 16.2424 14.5627 16.019 13.3624 15.8708Z" fill="#EBF0F5"/>
</svg>
